# xmcd
#
# Track frame offsets:
#	150
#	16675
#	34292
#	52107
#
# Disc length: 934 seconds
#
# Revision: 3
# Processed by: cddbd v1.5.2PL0 Copyright (c) Steve Scherf et al.
# Submitted via: EasyCDDAExtractor 15.2.5.1
#
DISCID=2b03a404
DTITLE=Carl B Henry - Gimme Love
DYEAR=2000
DGENRE=R&B
TTITLE0=Gimme Love (Radio Edit)
TTITLE1=Gimme Love (Instrumental)
TTITLE2=Gimme Love (A capella)
TTITLE3=Sex U
EXTD=
EXTT0=
EXTT1=
EXTT2=
EXTT3=
PLAYORDER=
